<svg xmlns="http://www.w3.org/2000/svg" viewBox="0 0 200 260" width="200" height="260">
  <defs>
    <filter id="aged-paper">
      <feTurbulence type="fractalNoise" baseFrequency="0.6" numOctaves="4" seed="11" result="noise"/>
      <feColorMatrix type="saturate" values="0" in="noise" result="mono"/>
      <feComponentTransfer in="mono" result="faint">
        <feFuncA type="linear" slope="0.1" intercept="0"/>
      </feComponentTransfer>
      <feBlend in="SourceGraphic" in2="faint" mode="multiply"/>
    </filter>
    <filter id="ink-fade">
      <feTurbulence type="fractalNoise" baseFrequency="0.08" numOctaves="2" seed="55" result="n"/>
      <feDisplacementMap in="SourceGraphic" in2="n" scale="1.5" xChannelSelector="R" yChannelSelector="G"/>
    </filter>
    <!-- Aged paper edge -->
    <filter id="paper-edge">
      <feTurbulence type="turbulence" baseFrequency="0.04" numOctaves="5" seed="27"/>
      <feDisplacementMap in="SourceGraphic" scale="3" xChannelSelector="R" yChannelSelector="G"/>
    </filter>
  </defs>
  <!-- Paper shadow -->
  <rect x="8" y="8" width="186" height="246" rx="2" ry="2" fill="#B8B2A4" opacity="0.3"/>
  <!-- Main paper -->
  <rect x="4" y="4" width="186" height="246" rx="1" ry="1"
        fill="#F5F0E8" stroke="#D4CFC4" stroke-width="1"
        filter="url(#aged-paper)"/>
  <!-- Yellowed/aged edges -->
  <rect x="4" y="4" width="186" height="246" rx="1" ry="1"
        fill="none" stroke="#C9BFA5" stroke-width="3" opacity="0.2"
        filter="url(#paper-edge)"/>
  <!-- Header line (typed) -->
  <text x="100" y="28" text-anchor="middle"
        font-family="'Courier New', monospace" font-size="8" font-weight="700"
        fill="#3A3530" filter="url(#ink-fade)" opacity="0.7" letter-spacing="2">
    MINISTERIO DEL INTERIOR
  </text>
  <!-- Decorative rule -->
  <line x1="20" y1="36" x2="174" y2="36" stroke="#3A3530" stroke-width="0.5" opacity="0.3"/>
  <!-- Simulated typed/handwritten text lines with varying opacity and slight disorder -->
  <g filter="url(#ink-fade)" opacity="0.55">
    <!-- Typed lines -->
    <rect x="22" y="48" width="140" height="2" rx="1" fill="#2C2720"/>
    <rect x="22" y="58" width="152" height="2" rx="1" fill="#2C2720"/>
    <rect x="22" y="68" width="125" height="2" rx="1" fill="#2C2720"/>
    <rect x="22" y="78" width="148" height="2" rx="1" fill="#2C2720"/>
    <rect x="22" y="88" width="108" height="2" rx="1" fill="#2C2720"/>
    <!-- Paragraph gap -->
    <rect x="22" y="104" width="150" height="2" rx="1" fill="#2C2720"/>
    <rect x="22" y="114" width="138" height="2" rx="1" fill="#2C2720"/>
    <rect x="22" y="124" width="155" height="2" rx="1" fill="#2C2720"/>
    <rect x="22" y="134" width="120" height="2" rx="1" fill="#2C2720"/>
    <rect x="22" y="144" width="143" height="2" rx="1" fill="#2C2720"/>
    <rect x="22" y="154" width="130" height="2" rx="1" fill="#2C2720"/>
    <rect x="22" y="164" width="95" height="2" rx="1" fill="#2C2720"/>
    <!-- Another paragraph -->
    <rect x="22" y="180" width="148" height="2" rx="1" fill="#2C2720"/>
    <rect x="22" y="190" width="155" height="2" rx="1" fill="#2C2720"/>
    <rect x="22" y="200" width="110" height="2" rx="1" fill="#2C2720"/>
  </g>
  <!-- Handwritten signature area -->
  <path d="M 110 220 Q 120 215, 130 222 T 155 218 T 165 224"
        stroke="#2C2720" stroke-width="1.2" fill="none" opacity="0.4" filter="url(#ink-fade)"/>
  <!-- Official seal impression (faint circle) -->
  <circle cx="55" cy="222" r="18" fill="none" stroke="#8B7B65" stroke-width="1" opacity="0.15"/>
  <circle cx="55" cy="222" r="14" fill="none" stroke="#8B7B65" stroke-width="0.5" opacity="0.1"/>
  <text x="55" y="224" text-anchor="middle" dominant-baseline="central"
        font-family="'Times New Roman', serif" font-size="5"
        fill="#8B7B65" opacity="0.2">REGISTRO</text>
  <!-- Dog-eared corner -->
  <path d="M 170 4 L 190 4 L 190 24 Z" fill="#E8E0D0" stroke="#C9BFA5" stroke-width="0.5"/>
  <path d="M 170 4 L 170 24 L 190 24" fill="#DDD5C5" stroke="none"/>
  <!-- Faint page number -->
  <text x="178" y="248" text-anchor="middle"
        font-family="'Courier New', monospace" font-size="7"
        fill="#8B7B65" opacity="0.3">
    3/12
  </text>
</svg>